<svg xmlns="http://www.w3.org/2000/svg" viewBox="0 0 33 22" width="20" height="14">
  <!-- 红色背景 -->
  <rect width="33" height="22" fill="#de2910"/>
  <!-- 大五角星 -->
  <polygon points="5,1 6.5,4.5 10,4.5 7.5,6.8 8.5,10.5 5,8 1.5,10.5 2.5,6.8 0,4.5 3.5,4.5" fill="#ffde00"/>
  <!-- 四颗小五角星 -->
  <polygon points="10,3 10.6,4.3 12,4.3 11,5.2 11.4,6.6 10,5.7 8.6,6.6 9,5.2 8,4.3 9.4,4.3" fill="#ffde00"/>
  <polygon points="13,1 13.6,2.3 15,2.3 14,3.2 14.4,4.6 13,3.7 11.6,4.6 12,3.2 11,2.3 12.4,2.3" fill="#ffde00"/>
  <polygon points="15,3 15.6,4.3 17,4.3 16,5.2 16.4,6.6 15,5.7 13.6,6.6 14,5.2 13,4.3 14.4,4.3" fill="#ffde00"/>
  <polygon points="12.5,5 13.1,6.3 14.5,6.3 13.5,7.2 13.9,8.6 12.5,7.7 11.1,8.6 11.5,7.2 10.5,6.3 11.9,6.3" fill="#ffde00"/>
</svg>
